<svg class="medium-up--hide icon-wave" viewBox="0 0 374 55" fill="none" xmlns="http://www.w3.org/2000/svg">
    <path fill-rule="evenodd" clip-rule="evenodd" d="M-292.77 52.329L-258.412 56.503C-224.053 60.677 -155.337 69.025 -85.8839 56.082C-16.4305 43.14 53.76 8.90699 122.786 8.31199C191.812 7.71799 259.673 40.763 328.389 49.11C397.105 57.458 466.662 41.535 501.433 33.786L536.218 25.611L539.403 -66.3631L504.941 -67.5563C470.48 -68.7495 401.558 -71.1359 332.635 -73.5223C263.712 -75.9087 194.79 -78.2951 125.867 -80.6816C56.9446 -83.068 -11.978 -85.4544 -80.9006 -87.8408C-149.823 -90.2272 -218.746 -92.6136 -253.207 -93.8068L-287.668 -95L-292.77 52.329Z" fill="currentColor"></path>
  </svg>