<svg aria-hidden="true" focusable="false" role="presentation" viewBox="0 0 173 19" class="icon-wave" fill="none" xmlns="http://www.w3.org/2000/svg">
      <mask style="mask-type:luminance" maskUnits="userSpaceOnUse" x="0" y="0" width="173" height="19">
      <path d="M172.804 0L0.418945 0V19H172.804V0Z" fill="white"></path>
      </mask>
      <g mask="url(#mask0_789_140)">
      <path d="M174.973 13.4049C166.947 13.6997 166.863 9.08995 158.83 9.08995C150.797 9.08995 150.797 13.4049 142.757 13.4049C134.718 13.4049 134.725 9.08995 126.692 9.08995C118.659 9.08995 118.659 13.4049 110.619 13.4049C102.587 13.4049 102.587 9.08995 94.5468 9.08995C86.507 9.08995 86.514 13.4049 78.4743 13.4049C70.4345 13.4049 70.4345 9.08995 62.4017 9.08995C54.369 9.08995 54.369 13.4049 46.3292 13.4049C38.2895 13.4049 38.2895 9.08995 30.2567 9.08995C22.224 9.08995 22.2169 13.4049 14.1842 13.4049C6.15143 13.4049 6.21457 9.3848 -1.81818 9.08995C-2.10581 9.08276 -4 10.9526 -4 10.6577C-4 10.3628 0.209302 10.3628 0.209302 10.068C0.209302 9.77314 -4 9.78033 -4 9.48548C-4 9.19063 0.209302 9.19063 0.209302 8.89578C0.209302 8.60092 -4 8.60812 -4 8.31326C-4 8.01841 0.209302 8.01841 0.209302 7.72356C0.209302 7.42871 -4 7.42871 -4 7.14105C-4 6.85339 0.209302 6.84619 0.209302 6.55134C0.209302 6.25649 -4 6.25649 -4 5.96164C-4 5.66678 0.209302 5.66678 0.209302 5.37193C0.209302 5.07708 -2.26015 2.63196 -1.97252 2.62477C6.05322 2.32992 6.1374 6.93968 14.1702 6.93968C22.2029 6.93968 22.2029 2.62477 30.2427 2.62477C38.2824 2.62477 38.2754 6.93968 46.3082 6.93968C54.3409 6.93968 54.3409 2.62477 62.3807 2.62477C70.4205 2.62477 70.4134 6.93968 78.4532 6.93968C86.493 6.93968 86.486 2.62477 94.5257 2.62477C102.565 2.62477 102.566 6.93968 110.598 6.93968C118.631 6.93968 118.631 2.62477 126.671 2.62477C134.711 2.62477 134.711 6.93968 142.743 6.93968C150.776 6.93968 150.783 2.62477 158.816 2.62477C166.849 2.62477 166.785 6.64483 174.818 6.93968C175.106 6.94688 177 5.07708 177 5.37193C177 5.66678 172.791 5.66678 172.791 5.96164C172.791 6.25649 177 6.25649 177 6.55134C177 6.84619 172.791 6.84619 172.791 7.14105C172.791 7.4359 177 7.4359 177 7.73075C177 8.0256 172.791 8.0256 172.791 8.32046C172.791 8.61531 177 8.61531 177 8.90297C177 9.19063 172.791 9.19782 172.791 9.49267C172.791 9.78753 177 9.78753 177 10.0824C177 10.3772 172.77 10.6217 172.805 10.9166C172.959 12.3046 175.26 13.4121 174.973 13.4264V13.4049Z" fill="#FDE282"></path>
      </g>
    </svg>