<svg width="21" height="16" viewBox="0 0 21 16" fill="none" xmlns="http://www.w3.org/2000/svg">
          <path d="M17.6392 4.49332H14.9621V0.923828H2.46883C1.48722 0.923828 0.684082 1.72696 0.684082 2.70857V12.5247H2.46883C2.46883 14.006 3.66461 15.2018 5.14595 15.2018C6.62729 15.2018 7.82307 14.006 7.82307 12.5247H13.1773C13.1773 14.006 14.3731 15.2018 15.8544 15.2018C17.3358 15.2018 18.5315 14.006 18.5315 12.5247H20.3163V8.06281L17.6392 4.49332ZM17.193 5.83188L18.942 8.06281H14.9621V5.83188H17.193ZM5.14595 13.4171C4.65514 13.4171 4.25357 13.0155 4.25357 12.5247C4.25357 12.0339 4.65514 11.6323 5.14595 11.6323C5.63675 11.6323 6.03832 12.0339 6.03832 12.5247C6.03832 13.0155 5.63675 13.4171 5.14595 13.4171ZM7.12702 10.7399C6.63621 10.1956 5.94016 9.84756 5.14595 9.84756C4.35174 9.84756 3.65568 10.1956 3.16488 10.7399H2.46883V2.70857H13.1773V10.7399H7.12702ZM15.8544 13.4171C15.3636 13.4171 14.9621 13.0155 14.9621 12.5247C14.9621 12.0339 15.3636 11.6323 15.8544 11.6323C16.3452 11.6323 16.7468 12.0339 16.7468 12.5247C16.7468 13.0155 16.3452 13.4171 15.8544 13.4171Z" fill="#8494A0"></path>
        </svg>