<?xml version="1.0" encoding="utf-8"?>
<svg xmlns="http://www.w3.org/2000/svg" width="97" height="20" viewBox="0 0 97 20" fill="none">
<path d="M0 4.44444C0 1.98984 1.98985 0 4.44444 0H91.5173C93.9718 0 95.9618 1.98984 95.9618 4.44444V15.5556C95.9618 18.0102 93.9718 20 91.5173 20H4.44444C1.98984 20 0 18.0102 0 15.5556V4.44444Z" fill="#F0F0F0"/>
<path d="M9.09103 13.8889H7.64658L4.79102 5.22224H6.13547L8.3688 12.5111L10.6021 5.22224H11.9355L9.09103 13.8889ZM14.5764 14.0667C12.8653 14.0667 11.7208 12.7889 11.7208 10.9889C11.7208 9.21112 12.8319 7.93334 14.5764 7.93334C15.9875 7.93334 17.1764 9.01112 17.1764 10.9222V11.3778H12.9653C13.043 12.4222 13.5653 13.1 14.5764 13.1C15.3097 13.1 15.8097 12.6667 15.9097 12.2556H17.1208C16.943 13.2445 15.9319 14.0667 14.5764 14.0667ZM12.9764 10.5445H15.9541C15.9208 9.61112 15.3541 8.97779 14.543 8.97779C13.5986 8.97779 13.1097 9.5889 12.9764 10.5445ZM19.6852 13.8889H18.5185V8.11112H19.6852V9.61112C20.063 8.43334 20.8519 8.04445 22.0185 8.04445V9.20001C20.6519 9.20001 19.6852 9.61112 19.6852 11.0556V13.8889ZM23.5239 6.87779C23.035 6.87779 22.7017 6.54445 22.7017 6.05557C22.7017 5.56668 23.035 5.24447 23.5239 5.24447C24.0239 5.24447 24.3462 5.56668 24.3462 6.05557C24.3462 6.54445 24.0239 6.87779 23.5239 6.87779ZM24.135 13.8889H22.9239V8.11112H24.135V13.8889ZM27.6893 13.8889H26.4782V9.15557H25.2226V8.11112H26.4782V7.45557C26.4782 5.84445 27.2004 5.02224 28.6893 5.11113L29.1115 5.12224V6.16668H28.8893C28.0337 6.16668 27.7004 6.47779 27.6893 7.32223V8.11112H29.1226V9.15557H27.6893V13.8889ZM30.8373 6.87779C30.3484 6.87779 30.0151 6.54445 30.0151 6.05557C30.0151 5.56668 30.3484 5.24447 30.8373 5.24447C31.3373 5.24447 31.6595 5.56668 31.6595 6.05557C31.6595 6.54445 31.3373 6.87779 30.8373 6.87779ZM31.4484 13.8889H30.2373V8.11112H31.4484V13.8889ZM35.7026 14.0667C33.9916 14.0667 32.8471 12.7889 32.8471 10.9889C32.8471 9.21112 33.9582 7.93334 35.7026 7.93334C37.1137 7.93334 38.3026 9.01112 38.3026 10.9222V11.3778H34.0916C34.1693 12.4222 34.6916 13.1 35.7026 13.1C36.436 13.1 36.936 12.6667 37.036 12.2556H38.2471C38.0693 13.2445 37.0582 14.0667 35.7026 14.0667ZM34.1027 10.5445H37.0804C37.0471 9.61112 36.4804 8.97779 35.6693 8.97779C34.7249 8.97779 34.236 9.5889 34.1027 10.5445ZM42.0438 14.0667C40.4993 14.0667 39.466 12.8445 39.466 10.9778C39.466 9.13334 40.4993 7.93334 42.0438 7.93334C42.7882 7.93334 43.6327 8.35557 44.0327 9.02223V5.11113H45.2438V13.8889H44.0327V12.9667C43.6438 13.6445 42.7882 14.0667 42.0438 14.0667ZM42.2993 13.0222C43.3549 13.0222 44.066 12.2222 44.066 10.9889C44.066 9.76668 43.3549 8.97779 42.2993 8.97779C41.3327 8.97779 40.6882 9.76668 40.6882 10.9889C40.6882 12.2222 41.3327 13.0222 42.2993 13.0222ZM52.8164 14.0667C52.0719 14.0667 51.2164 13.6445 50.8275 12.9667V13.8889H49.6164V5.11113H50.8275V9.02223C51.2275 8.35557 52.0719 7.93334 52.8164 7.93334C54.3608 7.93334 55.3941 9.13334 55.3941 10.9778C55.3941 12.8445 54.3608 14.0667 52.8164 14.0667ZM52.5608 13.0222C53.5275 13.0222 54.1719 12.2222 54.1719 10.9889C54.1719 9.76668 53.5275 8.97779 52.5608 8.97779C51.5053 8.97779 50.7941 9.76668 50.7941 10.9889C50.7941 12.2222 51.5053 13.0222 52.5608 13.0222ZM56.4219 16.1111V15.0556C57.2552 15.0556 57.6219 14.9222 57.9552 14.0445L55.8663 8.11112H57.1774L58.5885 12.5445L59.9885 8.11112H61.2774L59.0996 14.2667C58.5663 15.7778 57.8774 16.1111 56.4219 16.1111Z" fill="black"/>
<mask id="mask0_1824_1656" style="mask-type:luminance" maskUnits="userSpaceOnUse" x="64" y="5" width="28" height="12">
<path d="M91.5171 5.11115H64.4443V16.2223H91.5171V5.11115Z" fill="white"/>
</mask>
<g mask="url(#mask0_1824_1656)">
<path d="M67.6688 9.99784C66.581 9.76223 66.096 9.67001 66.096 9.25146C66.096 8.85773 66.4243 8.66162 67.0799 8.66162C67.6571 8.66162 68.0788 8.91335 68.3893 9.40657C68.4127 9.44462 68.461 9.45779 68.5005 9.43729L69.7249 8.81968C69.7688 8.79773 69.7849 8.74212 69.7599 8.69968C69.2516 7.82012 68.3132 7.33862 67.0771 7.33862C65.4532 7.33862 64.4443 8.13768 64.4443 9.40801C64.4443 10.7574 65.6727 11.0984 66.7621 11.334C67.8521 11.5697 68.3382 11.6618 68.3382 12.0805C68.3382 12.499 67.9838 12.6966 67.2766 12.6966C66.6232 12.6966 66.1388 12.398 65.8455 11.8185C65.8238 11.776 65.7727 11.7585 65.7299 11.7804L64.5088 12.3848C64.4666 12.4068 64.4488 12.458 64.4704 12.502C64.9554 13.4752 65.9499 14.0225 67.2777 14.0225C68.9693 14.0225 69.991 13.2366 69.991 11.9268C69.991 10.6169 68.7566 10.2364 67.6688 10.0008V9.99784Z" fill="black"/>
<path d="M74.2292 7.33866C73.5354 7.33866 72.9215 7.5845 72.4809 8.02211C72.4531 8.04844 72.4076 8.02944 72.4076 7.99138V5.19749C72.4076 5.1492 72.3698 5.11115 72.3215 5.11115H70.7898C70.7415 5.11115 70.7031 5.1492 70.7031 5.19749V13.8689C70.7031 13.9172 70.7415 13.9552 70.7898 13.9552H72.3215C72.3698 13.9552 72.4076 13.9172 72.4076 13.8689V10.0652C72.4076 9.33049 72.9715 8.76705 73.7315 8.76705C74.4915 8.76705 75.042 9.31877 75.042 10.0652V13.8689C75.042 13.9172 75.0804 13.9552 75.1287 13.9552H76.6604C76.7087 13.9552 76.7465 13.9172 76.7465 13.8689V10.0652C76.7465 8.467 75.6981 7.33866 74.2292 7.33866Z" fill="black"/>
<path d="M79.8536 7.0899C79.0219 7.0899 78.243 7.34457 77.6836 7.71191C77.6452 7.73679 77.6325 7.78802 77.6558 7.82757L78.3308 8.97935C78.3558 9.02029 78.4086 9.03496 78.4491 9.01007C78.8741 8.75396 79.3602 8.62079 79.8563 8.62368C81.1936 8.62368 82.1763 9.56624 82.1763 10.8117C82.1763 11.8727 81.3897 12.6586 80.3925 12.6586C79.5797 12.6586 79.0158 12.1859 79.0158 11.5186C79.0158 11.1366 79.1786 10.8234 79.6019 10.6024C79.6458 10.579 79.6619 10.5248 79.6352 10.4824L78.9986 9.40524C78.978 9.37013 78.9341 9.35402 78.8947 9.36863C78.0408 9.68474 77.4419 10.4458 77.4419 11.4673C77.4419 13.0128 78.6736 14.1661 80.3913 14.1661C82.3975 14.1661 83.8397 12.7772 83.8397 10.7854C83.8397 8.65007 82.1613 7.0899 79.8536 7.0899Z" fill="black"/>
<path d="M88.3204 7.32544C87.546 7.32544 86.8532 7.61227 86.3482 8.11572C86.3199 8.14355 86.2749 8.12305 86.2749 8.085V7.47911C86.2749 7.43083 86.2365 7.39277 86.1882 7.39277H84.696C84.6476 7.39277 84.6099 7.43083 84.6099 7.47911V16.1373C84.6099 16.1856 84.6476 16.2237 84.696 16.2237H86.2276C86.276 16.2237 86.3143 16.1856 86.3143 16.1373V13.2981C86.3143 13.2601 86.3599 13.241 86.3876 13.2659C86.891 13.7342 87.5576 14.0079 88.3204 14.0079C90.1171 14.0079 91.5188 12.5546 91.5188 10.6667C91.5188 8.77872 90.116 7.32544 88.3204 7.32544ZM88.0304 12.5414C87.0082 12.5414 86.2337 11.7292 86.2337 10.6549C86.2337 9.58072 87.0071 8.7685 88.0304 8.7685C89.0543 8.7685 89.826 9.56755 89.826 10.6549C89.826 11.7424 89.0643 12.5414 88.0288 12.5414H88.0304Z" fill="black"/>
</g>
</svg>